<?xml version="1.0" standalone="no"?>
<!DOCTYPE svg PUBLIC "-//W3C//DTD SVG 20010904//EN"
 "http://www.w3.org/TR/2001/REC-SVG-20010904/DTD/svg10.dtd">
<svg version="1.0" xmlns="http://www.w3.org/2000/svg"
 width="128.000000pt" height="128.000000pt" viewBox="0 0 128.000000 128.000000"
 preserveAspectRatio="xMidYMid meet">

<g transform="translate(0.000000,128.000000) scale(0.100000,-0.100000)"
fill="#000000" stroke="none">
<path d="M0 640 l0 -640 640 0 640 0 0 640 0 640 -640 0 -640 0 0 -640z m510
409 c0 -20 -24 -26 -35 -9 -8 13 14 42 26 34 5 -3 9 -14 9 -25z m-8 -71 c87
-34 158 -68 158 -75 0 -7 -9 -17 -20 -23 -16 -9 -39 -5 -106 15 -48 15 -92 24
-99 21 -16 -6 -105 86 -105 109 0 8 3 15 7 15 4 0 78 -28 165 -62z m347 28
c91 -43 135 -83 170 -150 43 -85 65 -209 50 -285 -15 -76 -29 -94 -63 -81 -29
11 -36 23 -8 14 16 -5 16 -4 -1 9 -14 11 -15 16 -5 20 10 4 10 7 -1 15 -9 7
-12 20 -7 43 17 84 18 158 3 210 -9 29 -14 56 -12 59 2 4 -2 7 -10 7 -8 0 -15
-6 -15 -14 0 -11 -4 -11 -20 -3 -16 8 -19 17 -14 33 4 12 10 24 15 27 13 8
-127 100 -153 101 -13 1 -34 5 -48 9 -20 7 -16 8 23 9 31 1 64 -7 96 -23z
m-529 -117 c0 -11 5 -30 11 -42 9 -21 9 -21 -5 -4 -11 14 -22 17 -45 12 -38
-8 -39 -1 -5 30 33 30 44 31 44 4z m262 -50 c13 -7 48 -41 78 -77 30 -36 120
-129 199 -208 l144 -143 -7 -42 c-4 -23 -11 -50 -16 -60 -9 -16 -14 -15 -52
21 -23 21 -46 36 -52 33 -5 -3 -6 -1 -2 5 4 7 0 12 -11 13 -11 0 -13 2 -5 6
17 6 -14 43 -36 43 -12 0 -11 4 3 26 16 25 16 26 -2 20 -15 -5 -35 11 -87 69
-69 77 -96 90 -112 55 -9 -20 -9 -20 -22 0 -11 19 -11 21 5 18 10 -2 18 3 17
10 -1 6 -2 20 -3 30 0 9 -32 53 -71 97 -82 94 -87 110 -30 101 21 -3 50 -11
62 -17z m-279 -290 c20 -41 42 -67 84 -99 84 -62 159 -95 213 -92 25 1 62 -6
83 -15 36 -15 49 -33 25 -33 -18 0 0 -13 22 -17 24 -4 28 32 5 41 -8 3 -15 11
-15 17 0 7 11 2 25 -11 34 -32 31 -47 -12 -59 -113 -32 -240 7 -340 103 -24
22 -43 35 -43 29 0 -6 -9 -13 -20 -16 -28 -7 -46 26 -25 47 14 14 13 20 -10
65 -14 28 -25 57 -25 66 0 8 -3 15 -7 15 -11 0 -16 118 -6 133 5 7 10 -16 14
-53 3 -39 16 -87 32 -121z m26 -215 c12 -15 21 -32 21 -38 0 -6 -7 1 -16 14
-10 14 -24 31 -32 38 -9 6 -11 12 -5 12 7 0 21 -12 32 -26z m-20 -20 c18 -23
19 -54 1 -54 -13 0 -60 52 -60 66 0 23 37 16 59 -12z"/>
<path d="M1016 689 c-3 -18 -4 -34 -2 -36 2 -3 7 10 11 27 4 17 5 34 2 36 -2
3 -7 -10 -11 -27z"/>
</g>
</svg>
